PathFileType	4	(X/Y/Z)	Kaydara																																																																																																																																																																																																																																																	
DataRate	CameraRate	NumFrames	NumMarkers	Units	OrigDataRate	OrigDataStartFrame	OrigNumFrames																																																																																																																																																																																																																																													
30	30	6	41	mm	30	201	273																																																																																																																																																																																																																																													
Frame#	Time	SALE_LFHD			SALE_RFHD			SALE_LBHD			SALE_RBHD			SALE_LFTShould			SALE_RFTShould			SALE_LRRShould			SALE_RRRShould			SALE_T10			SALE_STRN			SALE_TRUN			SALE_LSHO			SALE_LUPA			SALE_LELB			SALE_LFRM			SALE_LWRA			SALE_LWRB			SALE_LFIN			SALE_RSHO			SALE_RUPA			SALE_RELB			SALE_RFRM			SALE_RWRB			SALE_RFIN			SALE_LFWT			SALE_RFWT			SALE_LBWT			SALE_RBWT			SALE_LTHI			SALE_LKNE			SALE_RWRA			SALE_LSHN			SALE_LANK			SALE_LHEE			SALE_LTOE			SALE_RTHI			SALE_RKNE			SALE_RSHN			SALE_RANK			SALE_RHEE			SALE_RTOE																																																																																																																										
		X1	Y1	Z1	X2	Y2	Z2	X3	Y3	Z3	X4	Y4	Z4	X5	Y5	Z5	X6	Y6	Z6	X7	Y7	Z7	X8	Y8	Z8	X9	Y9	Z9	X10	Y10	Z10	X11	Y11	Z11	X12	Y12	Z12	X13	Y13	Z13	X14	Y14	Z14	X15	Y15	Z15	X16	Y16	Z16	X17	Y17	Z17	X18	Y18	Z18	X19	Y19	Z19	X20	Y20	Z20	X21	Y21	Z21	X22	Y22	Z22	X23	Y23	Z23	X24	Y24	Z24	X25	Y25	Z25	X26	Y26	Z26	X27	Y27	Z27	X28	Y28	Z28	X29	Y29	Z29	X30	Y30	Z30	X31	Y31	Z31	X32	Y32	Z32	X33	Y33	Z33	X34	Y34	Z34	X35	Y35	Z35	X36	Y36	Z36	X37	Y37	Z37	X38	Y38	Z38	X39	Y39	Z39	X40	Y40	Z40	X41	Y41	Z41																																																																																																																							Y81	Z81
																																																																																																																																																																																																																																																				
171	6.667	284.36113	1525.00565	297.60731	154.61398	1528.86948	307.32281	275.2951	1604.50607	191.93203	150.3396	1603.93021	205.14832	275.77465	1343.69736	153.96596	135.67899	1345.76996	153.2516	273.58294	1414.13528	49.35986	122.85153	1421.38443	54.68838	194.40302	1268.98041	-30.25987	198.97827	1271.11649	195.47565	193.44612	1183.45436	232.02051	393.02849	1374.55307	90.02788	435.02602	1158.55637	68.2221	419.74304	1049.20006	49.11264	453.35938	945.439	73.18419	400.07881	803.66974	139.3481	463.24867	799.48509	96.45554	465.97706	755.97115	142.90178	30.15445	1385.31631	92.09801	-11.84776	1158.53119	25.32758	-39.90397	1057.8186	71.80859	-36.45786	943.4127	64.79675	-50.75076	807.24152	114.90222	-53.12953	770.58685	171.70122	318.76499	960.52002	185.00212	43.08408	935.14458	156.74442	277.4169	1002.00157	7.5802	100.4287	987.03606	-11.96238	338.34805	648.46558	43.22989	315.35576	483.59451	130.98721	2.07938	819.66751	166.80077	301.32915	285.29465	143.40427	284.58481	99.02029	113.61195	246.5229	46.71012	53.02193	247.89654	62.31248	250.0079	56.76438	659.3679	50.79575	33.5588	523.53756	191.07054	80.78138	336.80336	91.66018	51.89822	220.59935	-142.24812	32.51164	86.6477	-115.30708	116.78885	223.50107	-219.16842																																																																																																																							0	-0.00191
172	6.7	284.92325	1520.57526	326.47831	155.14297	1524.13147	334.49524	277.01584	1604.43069	223.92672	151.87322	1603.28339	235.74142	277.73849	1347.03552	178.73941	137.30341	1349.60983	175.11255	277.35464	1417.0639	74.77067	126.84538	1424.14917	76.86587	200.19634	1271.95862	-6.34332	199.66913	1275.27733	218.27503	193.50065	1187.55936	254.6838	395.76591	1378.28186	117.25969	441.02253	1162.78587	102.21188	428.68538	1052.91298	85.29363	464.21822	950.66605	111.45039	412.33734	808.24806	177.74633	477.21184	805.40535	136.47557	479.00368	762.02538	183.3226	33.0444	1388.47275	111.23195	-6.39368	1162.09763	42.04568	-36.24946	1061.01608	87.13239	-32.03225	946.48384	80.99988	-48.6091	811.10771	131.65323	-55.41541	775.74821	188.58212	322.6366	959.64043	205.91091	46.38067	939.76364	180.22425	279.39585	1003.25333	29.27771	102.12604	990.21225	10.58479	334.85657	649.87015	58.23895	313.11245	483.61397	142.47717	1.3463	823.5228	186.66439	300.03799	284.91943	149.30206	283.69869	99.6331	114.52471	245.57213	47.54767	53.28236	248.55137	62.16964	250.12901	53.63227	662.36946	86.65929	37.94194	534.72668	238.9905	85.91963	341.26183	152.09898	56.53172	207.09026	-72.09104	37.58582	80.26563	-27.22444	119.97437	200.56332	-151.46225																																																																																																																							0	-0.00191
173	6.733	284.58984	1516.41891	355.00172	154.68452	1519.44687	361.1805	277.96818	1604.04236	255.44561	152.58243	1602.09244	265.38094	279.87265	1350.56107	203.51746	138.95365	1352.26196	197.6268	280.15915	1419.78546	99.50909	129.98625	1426.40091	99.61783	204.60192	1274.72992	17.2448	201.10958	1278.76762	241.5592	194.71188	1191.01494	277.85097	397.95937	1382.21542	142.85813	446.27354	1167.50938	133.25485	436.09631	1056.8972	119.41394	473.36815	956.15303	149.00004	422.85126	813.9016	217.17148	489.13849	812.05719	177.7812	490.2454	769.30527	225.44378	35.68882	1390.81924	132.10477	-1.82706	1165.63873	59.55705	-33.97947	1064.06563	102.95719	-29.6961	949.25919	97.44826	-47.28514	814.11041	148.64408	-56.31351	778.99483	205.28511	325.91198	958.71132	225.04549	49.56722	944.82079	204.05012	279.12672	1004.09462	49.82267	101.7878	993.54408	32.96977	329.62105	651.85501	71.46238	311.6794	483.62953	152.81061	0.20568	827.14897	205.28648	298.87598	284.39543	155.29481	282.93095	100.22279	115.31798	244.58162	48.32911	53.75503	249.20012	62.06485	250.22541	49.08091	667.1064	119.33879	45.67282	546.38519	280.76281	93.47656	345.04532	211.48256	58.86874	183.95811	5.73604	46.17673	67.2649	69.9795	118.97023	167.09517	-75.91844																																																																																																																							0	-0.00191
174	6.767	283.78738	1512.69852	382.78717	153.80168	1515.15945	387.30633	278.2362	1602.97348	285.60673	152.63795	1600.40192	293.80726	281.7082	1351.75003	227.96473	140.72663	1352.60635	221.49092	282.01616	1421.64429	124.5157	132.01726	1427.67731	123.95698	207.49239	1276.97304	40.64563	203.02225	1279.45885	265.13988	196.96882	1191.30928	300.51651	399.55002	1385.04852	168.12271	450.3833	1171.22391	161.85181	442.35687	1059.96773	150.96247	480.99468	960.72906	184.59146	432.25578	820.2993	258.28096	498.90224	818.19649	218.98989	500.1165	776.98807	268.25602	37.76499	1391.68259	155.58585	2.32059	1168.20557	78.13772	-32.6697	1066.14288	119.18917	-28.70742	950.87784	114.17153	-46.70698	815.47333	165.47344	-56.28717	779.92256	221.97838	328.23624	957.54028	244.38896	51.23452	948.53493	226.8767	278.10818	1004.4326	70.17683	100.84146	996.58607	55.23296	324.30641	653.28606	84.9776	310.38677	483.22853	162.89505	-0.83841	829.23851	222.96936	298.05563	283.85664	160.04282	281.77658	100.77416	116.21107	243.40221	49.52091	53.46748	249.9939	61.98292	250.3644	45.21844	670.42473	150.95165	54.72191	555.97809	316.42481	102.87402	347.97756	266.43864	61.31104	156.17193	90.6237	54.82923	55.32186	174.08754	117.42379	127.31208	7.76311																																																																																																																							0	-0.00191
175	6.8	282.66317	1509.048	410.09441	152.70094	1510.98267	413.18817	277.93051	1601.0025	314.41568	152.28691	1597.90344	321.25092	282.99261	1350.91415	252.21676	142.09005	1351.28326	245.86361	282.86484	1422.16721	149.66532	132.84656	1427.64542	149.33548	208.75517	1278.02879	64.47179	204.81039	1277.71866	288.77249	199.25428	1189.22974	323.4618	400.42961	1386.01547	193.11045	453.81069	1173.12363	188.97808	447.65259	1061.24123	180.29446	487.08527	963.18436	218.33178	439.97047	826.38283	299.45993	506.30989	822.61154	259.55328	508.48648	784.42139	310.91099	38.87655	1390.89508	180.77648	3.73147	1169.21692	99.18721	-32.26763	1066.46385	137.76647	-28.44836	950.9922	131.72444	-46.07989	814.99832	182.22641	-55.76079	778.74863	238.4206	329.00017	955.50583	264.04139	51.8085	949.84787	249.5565	276.92133	1004.16214	90.93255	99.39147	998.13454	77.63846	319.47647	654.12529	99.32747	308.72156	482.50065	173.59196	-1.27214	829.00932	240.29884	296.49189	283.26283	166.04349	280.4801	101.11441	117.33236	241.80561	50.54135	54.0775	250.30024	61.70283	250.75495	44.19857	673.15514	179.48643	62.54611	562.12086	346.59176	111.37683	350.77225	317.61129	64.9652	133.87197	177.23471	61.59537	55.24831	277.74975	117.87214	90.37019	97.009																																																																																																																							0	-0.00191
176	6.833	281.60269	1505.36194	436.7519	151.53296	1506.89011	439.11606	277.12721	1598.28903	342.08389	151.3831	1594.90616	348.13915	283.60271	1348.92227	276.51724	142.80398	1348.75595	270.82115	282.67578	1421.2056	174.76578	132.63218	1426.28723	175.23697	208.46247	1277.62962	88.63034	205.9852	1274.83101	312.78339	200.98364	1186.00449	346.66698	400.42461	1385.02884	217.45148	456.30142	1173.0867	215.01829	451.78532	1060.55969	207.75299	491.68995	963.78273	250.37088	445.68699	831.96739	339.799	511.53538	825.67184	299.24929	514.8917	791.39595	353.02475	38.96907	1388.85696	206.88032	3.18822	1168.66898	121.84943	-32.34672	1065.10719	158.68468	-28.14881	949.78256	150.64299	-45.57032	812.93869	199.08409	-55.24914	775.78712	254.80202	329.29935	952.67563	284.7138	52.03846	949.2646	272.71025	275.5806	1003.24242	112.57489	97.83077	998.0542	100.48207	316.40579	654.78226	114.02857	306.72365	481.41644	184.55309	-1.17018	826.42113	257.61976	294.82277	282.21386	171.88845	278.80789	101.39253	118.54589	239.55872	51.1826	54.61777	250.30722	61.5482	250.77816	45.47744	673.51624	205.23788	68.77738	565.19363	372.98878	117.21152	354.13948	365.32455	67.53706	117.66843	263.53355	64.26939	55.02793	374.62029	119.54573	63.13825	189.91236																																																																																																																							0	-0.00191
